# Cube — 8 vertices, 6 normals, 12 triangles
v -0.5 -0.5 -0.5
v  0.5 -0.5 -0.5
v  0.5  0.5 -0.5
v -0.5  0.5 -0.5
v -0.5 -0.5  0.5
v  0.5 -0.5  0.5
v  0.5  0.5  0.5
v -0.5  0.5  0.5

vn  0  0 -1
vn  0  0  1
vn -1  0  0
vn  1  0  0
vn  0 -1  0
vn  0  1  0

# Back (-Z)
f 1//1 4//1 3//1
f 1//1 3//1 2//1

# Front (+Z)
f 5//2 6//2 7//2
f 5//2 7//2 8//2

# Left (-X)
f 5//3 4//3 1//3
f 5//3 8//3 4//3

# Right (+X)
f 2//4 7//4 6//4
f 2//4 3//4 7//4

# Bottom (-Y)
f 1//5 6//5 5//5
f 1//5 2//5 6//5

# Top (+Y)
f 4//6 7//6 3//6
f 4//6 8//6 7//6
